<svg xmlns="http://www.w3.org/2000/svg" width="50" height="36" viewBox="0 0 50 36" fill="none"><path d="M48.585 28.3535H46.5316V1.68198C46.5316 1.30461 46.2264 0.99938 45.849 0.99938L25.1933 0.993831C17.2351 0.993831 9.27699 0.988281 4.26568 0.988281C4.0881 0.988281 3.91051 1.06043 3.78287 1.18807C3.65523 1.31571 3.58308 1.48775 3.58308 1.67088V28.3535H1.52972C0.752774 28.3535 0.120117 28.9861 0.120117 29.7631V32.5767C0.120117 34.3693 1.57967 35.8344 3.3722 35.8344H46.748C48.5406 35.8344 50.0001 34.3748 50.0001 32.5767V29.7631C50.0001 28.9861 49.3675 28.3535 48.585 28.3535ZM1.48532 29.7631C1.48532 29.7409 1.50752 29.7187 1.52972 29.7187H4.26568H45.849H48.585C48.6127 29.7187 48.6349 29.7409 48.6349 29.7631V32.5767C48.6349 33.6201 47.7858 34.4692 46.748 34.4692H3.3722C2.32887 34.4692 1.48532 33.6201 1.48532 32.5767V29.7631ZM45.1664 28.3535H4.94829V2.35349L45.1664 2.36459V28.3535Z" fill="#FF0000"></path><path d="M25.0601 33.84C26.0258 33.84 26.8083 33.0575 26.8083 32.0919C26.8083 31.1262 26.0258 30.3438 25.0601 30.3438C24.0945 30.3438 23.312 31.1262 23.312 32.0919C23.312 33.0575 24.0945 33.84 25.0601 33.84ZM24.6772 32.0919C24.6772 31.881 24.8493 31.709 25.0601 31.709C25.271 31.709 25.4431 31.881 25.4431 32.0919C25.4431 32.3028 25.271 32.4748 25.0601 32.4748C24.8493 32.4748 24.6772 32.3028 24.6772 32.0919Z" fill="#FF0000"></path><path d="M20.6592 16.0856H16.6302V19.8205H21.1198V20.9415H15.2927V10.5859H20.8867V11.707H16.6302V14.9812H20.6592V16.0856Z" fill="#FF0000"></path><path d="M22.8513 10.7242C23.5284 10.5855 24.494 10.5078 25.4208 10.5078C26.8526 10.5078 27.7738 10.7686 28.4176 11.3514C28.9393 11.812 29.2334 12.5168 29.2334 13.3159C29.2334 14.6811 28.3732 15.5913 27.2799 15.9575V16.0019C28.0791 16.2794 28.5563 17.0175 28.8005 18.0941C29.139 19.537 29.3832 20.536 29.5997 20.9356H28.2178C28.0513 20.6414 27.8182 19.7535 27.5241 18.4604C27.2189 17.0286 26.6639 16.4959 25.4485 16.4459H24.1888V20.9356H22.8513V10.7242ZM24.1888 15.4414H25.554C26.9858 15.4414 27.8904 14.6589 27.8904 13.4769C27.8904 12.1394 26.9247 11.5567 25.5096 11.54C24.8658 11.54 24.4052 11.6011 24.1888 11.6621V15.4414Z" fill="#FF0000"></path><path d="M31.1202 10.7076C31.7639 10.6022 32.613 10.5078 33.6897 10.5078C35.0105 10.5078 35.9816 10.813 36.5921 11.368C37.1637 11.8619 37.4967 12.6111 37.4967 13.5379C37.4967 14.4758 37.2192 15.2139 36.6975 15.7522C35.9927 16.507 34.8384 16.8899 33.5287 16.8899C33.1291 16.8899 32.7629 16.8732 32.4521 16.7955V20.9467H31.1146V10.7076H31.1202ZM32.4576 15.7023C32.7518 15.78 33.118 15.8077 33.562 15.8077C35.1769 15.8077 36.1592 15.0252 36.1592 13.5934C36.1592 12.2282 35.1936 11.5622 33.7174 11.5622C33.1347 11.5622 32.6852 11.6066 32.4576 11.6677V15.7023Z" fill="#FF0000"></path></svg>